<?xml version="1.0" encoding="UTF-8"?>
<svg id="Logo" xmlns="http://www.w3.org/2000/svg" viewBox="0 0 453.5433 283.4646">
  <g>
    <path d="M34.0498,130.227c-4.53,4.245-10.62,6.855-17.3101,6.855-4.7999,0-9.2849-1.335-13.11-3.66,4.4701,12.39,16.3351,21.24,30.255,21.24,12.6901,0,23.655-7.335,28.89-18-2.3099.465-4.71.705-7.155.705-8.085,0-15.5549-2.655-21.5699-7.14" fill="#6c6884"/>
    <path d="M34.0498,130.227c6.015,4.485,13.485,7.14,21.5699,7.14,2.4451,0,4.8451-.24,7.155-.705,1.4401-2.925,2.4451-6.105,2.9401-9.45-10.92,0-19.2151-2.475-25.38-6.27-1.38,3.555-3.54,6.72-6.285,9.285Z" fill="#d5b39a"/>
    <path d="M65.4298,117.987c-9.645-.12-17.85-3.9-23.5649-10.08.105,1.275.1649,2.565.1649,3.87,0,3.225-.6,6.315-1.71,9.165,6.1799,3.795,14.46,6.27,25.38,6.27.225-1.545.345-3.105.345-4.71s-.225-3.09-.63-4.515h.015Z" fill="#bed8ea"/>
    <path d="M41.8648,107.9071c5.715,6.195,13.905,9.96,23.5649,10.08-3.6749-13.005-22.575-19.95-27.375-42.555-.5549,13.575,2.9851,22.68,3.8101,32.475" fill="#f79e9e"/>
    <path d="M34.0498,130.227c2.73-2.565,4.905-5.73,6.285-9.285-11.49-7.065-15.63-18.72-15.63-27.525,0-7.98,2.76-16.2,7.23-23.76-.585.66-1.1851,1.335-1.785,2.025-6.27,9.24-10.6949,20.085-10.6949,29.52,0,11.895,5.73,22.44,14.595,29.025" fill="#c3936f"/>
    <path d="M40.3197,120.942c1.11-2.835,1.71-5.925,1.71-9.165,0-1.305-.0599-2.595-.1649-3.87-5.4601-5.91-8.64-14.04-8.64-23.3101,0-8.79,1.02-14.805,3.72-20.25-1.59,1.59-3.285,3.39-5.025,5.325-4.47,7.56-7.23,15.78-7.23,23.76,0,8.79,4.14,20.445,15.63,27.525v-.015Z" fill="#a2c7e1"/>
    <path d="M41.8648,107.9071c-.825-9.795-4.365-18.9-3.8101-32.475-.705-3.33-1.11-7.005-1.11-11.085-2.715,5.445-3.72,11.475-3.72,20.25,0,9.27,3.1801,17.4,8.64,23.31" fill="#f15d5e"/>
  </g>
  <g>
    <path d="M117.3748,139.4369c-2.655,2.745-6.645,4.155-10.89,4.155s-8.235-1.41-10.89-4.155c-4.245-4.425-5.3099-10.185-5.3099-18.15s1.0649-13.635,5.3099-18.075c2.655-2.745,6.645-4.155,10.89-4.155s8.235,1.41,10.89,4.155c4.245,4.425,5.3101,10.095,5.3101,18.075,0,7.965-1.0651,13.725-5.3101,18.15M125.2648,95.7719c-5.0551-4.875-11.61-7.08-18.78-7.08s-13.8149,2.22-18.78,7.08c-6.99,6.915-9.0299,15.24-9.0299,25.515s2.13,18.78,9.0299,25.59c4.9651,4.875,11.4301,7.08,18.78,7.08,7.17,0,13.8151-2.22,18.78-7.08,6.99-6.915,9.03-15.33,9.03-25.59s-1.9501-18.69-9.03-25.515" fill="#2d2850"/>
    <path d="M172.5598,141.2969c-1.59,1.95-3.99,3.27-7.35,3.27-3.27,0-5.67-1.335-7.35-3.195-2.745-3.015-3.63-7.44-3.63-12.405,0-4.17.885-8.145,3.45-10.89,1.95-2.13,4.155-3.36,7.53-3.36,3.5399,0,5.76,1.41,7.62,3.54,2.5649,3.015,3.27,7.08,3.27,11.34,0,4.6949-1.0651,8.595-3.54,11.685v.015ZM180.1798,109.9469c-3.105-2.835-7.35-4.515-12.66-4.515-5.6699,0-11.25,2.31-13.8149,6.99l-.615-5.7599h-9.66v65.19h11.0699v-23.565c2.2201,2.745,6.1051,5.67,12.75,5.67,5.2201,0,9.4801-1.59,12.5701-4.335,5.0549-4.425,7.53-11.775,7.53-20.01,0-7.71-2.2201-15.15-7.17-19.665" fill="#2d2850"/>
    <polygon points="216.8397 115.797 192.6597 115.797 192.6597 106.662 229.8597 106.662 229.8597 116.682 205.7548 143.607 230.0248 143.607 230.0248 152.727 192.4797 152.727 192.4797 142.977 216.8397 115.797" fill="#2d2850"/>
    <path d="M246.0298,124.8269c.4501-6.285,4.875-10.635,10.89-10.635,5.9399,0,9.915,3.81,9.915,10.635h-20.8201.015ZM277.9198,128.4569c0-13.725-7.965-23.025-21.255-23.025-6.375,0-11.16,2.385-14.7,5.85-4.6051,4.425-7.0801,11.07-7.0801,18.42,0,7.53,2.475,14.175,7.17,18.6,3.72,3.45,8.595,5.67,15.15,5.67,9.9149,0,18.15-5.94,19.485-14.97h-10.365c-.795,3.63-4.245,6.195-9.3,6.195-6.99,0-11.0699-6.03-11.0699-12.315h31.71c.1801-1.065.27-2.655.27-4.425h-.015Z" fill="#2d2850"/>
    <path d="M286.0947,140.862v-52.26h11.16v50.4c0,2.655.615,4.425,4.4249,4.425.9751,0,1.245-.09,1.86-.09v9.3c-2.0399.45-2.835.615-4.875.615-7.5299,0-12.5699-3.63-12.5699-12.405v.015Z" fill="#2d2850"/>
    <path d="M309.6148,137.487v-30.825h11.0699v28.26c0,5.4,2.5651,8.85,7.9651,8.85,6.375,0,9.0299-5.22,9.0299-11.865v-25.245h11.0701v46.05h-9.48l-.525-6.915c-1.95,5.22-7.35,8.145-13.2,8.145-9.2101,0-15.9451-6.645-15.9451-16.47l.015.015Z" fill="#2d2850"/>
    <path d="M359.5797,106.662h9.66l.705,7.62c2.13-5.85,7.62-8.235,13.02-8.235,1.155,0,2.3099.09,3.45.27v10.6349c-.885-.27-2.22-.435-3.5399-.435-8.235,0-12.135,5.31-12.135,13.905v22.32h-11.16v-46.08Z" fill="#2d2850"/>
    <path d="M419.3848,134.127c0,6.03-3.45,10.98-10.98,10.98-4.605,0-7.35-2.475-7.35-6.03,0-4.155,3.27-5.85,7.71-6.195l10.635-.795v2.04h-.015ZM433.0198,144.222c-1.86,0-2.835-.795-2.835-2.925v-18.51c0-11.865-6.915-17.355-18.78-17.355s-19.3051,6.375-19.3051,15.15h10.7101c.27-4.245,3.015-6.645,8.4149-6.645,5.8501,0,8.145,3.015,8.145,7.35v2.655l-12.66.885c-10.2749.705-16.47,6.285-16.47,14.7,0,7.53,5.67,14.43,16.65,14.43,6.5551,0,11.52-3.54,13.635-7.26.705,3.9901,3.63,6.735,8.415,6.735,2.475,0,4.08-.45,5.49-1.245v-8.145c-.36.09-.885.18-1.41.18Z" fill="#2d2850"/>
    <path d="M34.0498,130.227c-8.85-6.585-14.595-17.145-14.595-29.025,0-9.435,4.4249-20.28,10.6949-29.52C16.9948,86.817,1.7249,109.5269,1.7249,122.502c0,3.84.6749,7.515,1.9049,10.92,3.8251,2.325,8.3101,3.66,13.11,3.66,6.6901,0,12.78-2.61,17.3101-6.855" fill="#2d2850"/>
    <path d="M441.9147,108.537v2.205h1.41c.66,0,1.155-.435,1.155-1.11s-.48-1.11-1.155-1.11h-1.41v.015ZM440.1447,115.1219v-8.085h3.5851c1.5,0,2.5649,1.2,2.5649,2.61,0,1.23-.84,2.04-1.5449,2.295l1.9049,3.18h-1.995l-1.59-2.88h-1.155v2.88h-1.77ZM443.0997,117.7319c3.7949,0,6.585-2.8799,6.585-6.72s-2.79-6.63-6.585-6.63-6.63,2.88-6.63,6.63,2.7899,6.72,6.63,6.72M434.4447,111.0119c0-4.815,3.75-8.58,8.655-8.58s8.625,3.75,8.625,8.58-3.75,8.67-8.625,8.67-8.655-3.75-8.655-8.67" fill="#2d2850"/>
    <path d="M429.3148,218.3369v-16.17c0-4.08-.645-7.035-5.0551-7.035-3.6599,0-5.97,1.83-5.97,5.805v17.4h-5.205v-16.335c0-4.185-.75-6.87-5.16-6.87-3.54,0-5.85,2.625-5.85,5.97v17.235h-5.2051v-26.97h4.5601l.4351,3.39h.1649c1.29-2.415,3.66-4.035,7.245-4.035s6.12,1.185,7.41,4.245c1.875-3.06,4.6801-4.245,8.16-4.245,7.1399,0,9.615,4.035,9.615,10.905v16.71h-5.16.015ZM386.3248,204.162c-4.29,0-11.985.21-11.985,6.345,0,2.85,1.98,4.89,4.83,4.89s4.89-1.185,7.14-2.85v-8.3849h.015ZM390.1348,218.8319c-1.725-.54-2.7899-1.395-3.225-3.33h-.105c-2.625,2.145-5.58,3.435-9.03,3.435-4.89,0-8.5349-2.895-8.5349-8.115,0-9.03,10.2-9.78,16.98-9.78v-2.475c0-2.85-1.7251-3.915-4.8301-3.915-3.6,0-7.095,1.455-9.615,3l-1.77-3.6c3.765-2.04,7.4701-3.33,11.865-3.33,6.66,0,9.5551,2.745,9.5551,9.45v12.255c.0599,1.56.645,2.415,1.875,2.955l-3.165,3.435v.015ZM361.9799,202.662c0-4.2451-1.9951-8.0551-6.7201-8.0551-5.58,0-7.47,4.14-7.47,8.0551h14.1901ZM366.7048,206.5169h-18.915c0,5.265,2.6851,8.49,7.9501,8.49,2.6849,0,5.1-.75,8.01-2.745l1.7699,3.54c-3.2699,2.25-6.495,3.12-9.99,3.12-8.535,0-12.9-5.475-12.9-14.0699,0-9.3,5.265-14.175,12.5701-14.175s11.55,5.58,11.55,13.755c0,.33,0,1.455-.045,2.1M339.9899,195.4019c-4.9351,0-8.16,1.29-8.16,6.18v16.755h-5.205v-26.97h4.455l.4349,3.435h.105c1.5601-2.79,4.1851-4.035,8.2201-4.035h1.455v4.62h-1.29l-.0149.015ZM321.4648,197.7719c-1.9351-1.935-4.245-2.955-7.0951-2.955-6.0149,0-7.95,4.83-7.95,9.99s1.9351,10.05,7.95,10.05c2.8501,0,5.1001-.81,7.515-2.85l1.725,3.54c-2.85,2.145-5.7449,3.39-9.5549,3.39-8.4299,0-12.885-5.64-12.885-13.905s4.4551-14.295,13.005-14.295c3.495,0,6.87,1.35,9.5551,3.495l-2.25,3.54h-.015ZM276.0148,194.787c-3.87,0-6.5549,1.995-6.5549,6.18v6.6c0,4.245,1.995,7.515,6.495,7.515,5.91,0,6.9299-5.43,6.9299-10.26s-.705-10.05-6.87-10.05M277.3499,218.9519c-3.87,0-6.765-1.605-8.2201-4.83h-.105l-.855,4.245h-3.87v-37.605h5.205v13.86h.105c1.5601-2.895,4.6201-3.87,7.6801-3.87,8.3251,0,10.905,6.66,10.905,14.025s-2.79,14.175-10.845,14.175M253.7848,191.3969h5.265v26.97h-5.265v-26.97ZM256.4098,187.4819c-1.9349,0-3.165-1.125-3.165-2.85s1.2301-2.79,3.165-2.79,3.165,1.08,3.165,2.79-1.23,2.85-3.165,2.85M243.3898,218.3669v-15.69c0-4.515-.5399-7.515-5.58-7.515-4.35,0-6.66,2.31-6.66,6.39v16.815h-5.205v-26.97h4.515l.375,3.39h.105c1.83-2.79,4.5601-4.035,8.265-4.035,7.47,0,9.4049,4.08,9.4049,10.845v16.755h-5.205l-.015.015ZM215.4148,191.3969h5.265v26.97h-5.265v-26.97ZM218.0398,187.4819c-1.9349,0-3.165-1.125-3.165-2.85s1.2301-2.79,3.165-2.79,3.165,1.08,3.165,2.79-1.23,2.85-3.165,2.85M208.3499,218.6969c-6.66,0-7.89-2.31-7.89-7.245v-15.795h-4.4551v-4.245h4.515v-7.3651h5.16v7.3651h6.345v4.245h-6.345v14.985c0,2.85.21,3.765,4.6801,3.765.6449,0,.9149,0,1.6649-.06v4.08c-1.2899.165-2.52.27-3.6599.27M188.1149,191.412h5.2649v26.97h-5.2649v-26.97ZM190.7548,187.4969c-1.9349,0-3.1649-1.125-3.1649-2.85s1.23-2.79,3.1649-2.79,3.165,1.08,3.165,2.79-1.23,2.85-3.165,2.85M185.1898,218.3819c-.975.165-2.37.27-3.975.27-4.0801,0-5.64-1.395-5.64-5.64v-32.235h5.205v30.99c0,2.415.645,2.52,2.5801,2.52h1.83v4.095ZM158.7598,214.9919c5.745,0,7.41-4.41,7.41-10.095s-1.665-10.05-7.47-10.05-7.47,4.41-7.47,10.05,1.6649,10.095,7.5149,10.095M158.6998,190.7669c8.64,0,12.78,5.805,12.78,14.19s-3.915,14.025-12.78,14.025-12.78-6.015-12.78-14.025,3.645-14.19,12.78-14.19M140.0398,218.3819l-6.345-10.8h-.0601l-6.39,10.8h-6.0149l9.345-14.235-8.265-12.735h5.91l5.64,9.5099h.105l5.5349-9.5099h5.4751l-8.16,12.5699,9.1799,14.4h-5.955ZM114.2998,218.3819l-.48-3.33h-.105c-1.395,2.25-3.87,3.915-8.115,3.915-5.745,0-9.135-2.205-9.135-10.845v-16.71h5.265v14.295c0,5.7.375,8.91,5.475,8.91,4.83,0,6.285-2.625,6.285-6.825v-16.3799h5.205v26.97h-4.41.015ZM92.0548,195.4469c-4.9351,0-8.16,1.29-8.16,6.18v16.755h-5.205v-26.97h4.455l.4351,3.435h.105c1.5599-2.79,4.1849-4.035,8.22-4.035h1.4551v4.62h-1.29l-.015.015Z" fill="#2d2850"/>
  </g>
</svg>