<?xml version="1.0" encoding="UTF-8"?>
<svg id="icon" xmlns="http://www.w3.org/2000/svg" viewBox="0 0 512 511.99">
  <defs>
    <style>
      .cls-1 {
        fill: #f15d5e;
      }

      .cls-2 {
        fill: #f79e9e;
      }

      .cls-3 {
        fill: #6c6884;
      }

      .cls-4 {
        fill: #fff;
      }

      .cls-5 {
        fill: #d5b39a;
      }

      .cls-6 {
        fill: #a2c7e1;
      }

      .cls-7 {
        fill: #2d2850;
      }

      .cls-8 {
        fill: #c3936f;
      }

      .cls-9 {
        fill: #bed8ea;
      }
    </style>
  </defs>
  <rect class="cls-4" width="512" height="512"/>
  <g>
    <g>
      <path class="cls-3" d="M256.66,332.34c-18.12,16.98-42.48,27.42-69.24,27.42-19.2,0-37.14-5.34-52.44-14.64,17.88,49.56,65.34,84.96,121.02,84.96,50.76,0,94.62-29.34,115.56-72-9.24,1.86-18.84,2.82-28.62,2.82-32.34,0-62.22-10.62-86.28-28.56"/>
      <path class="cls-5" d="M256.66,332.34c24.06,17.94,53.94,28.56,86.28,28.56,9.78,0,19.38-.96,28.62-2.82,5.76-11.7,9.78-24.42,11.76-37.8-43.68,0-76.86-9.9-101.52-25.08-5.52,14.22-14.16,26.88-25.14,37.14Z"/>
      <path class="cls-9" d="M382.18,283.38c-38.58-.48-71.4-15.6-94.26-40.32.42,5.1.66,10.26.66,15.48,0,12.9-2.4,25.26-6.84,36.66,24.72,15.18,57.84,25.08,101.52,25.08.9-6.18,1.38-12.42,1.38-18.84s-.9-12.36-2.52-18.06h.06Z"/>
      <path class="cls-2" d="M287.92,243.06c22.86,24.78,55.62,39.84,94.26,40.32-14.7-52.02-90.3-79.8-109.5-170.22-2.22,54.3,11.94,90.72,15.24,129.9"/>
      <path class="cls-8" d="M256.66,332.34c10.92-10.26,19.62-22.92,25.14-37.14-45.96-28.26-62.52-74.88-62.52-110.1,0-31.92,11.04-64.8,28.92-95.04-2.34,2.64-4.74,5.34-7.14,8.1-25.08,36.96-42.78,80.34-42.78,118.08,0,47.58,22.92,89.76,58.38,116.1"/>
      <path class="cls-6" d="M281.74,295.2c4.44-11.34,6.84-23.7,6.84-36.66,0-5.22-.24-10.38-.66-15.48-21.84-23.64-34.56-56.16-34.56-93.24,0-35.16,4.08-59.22,14.88-81-6.36,6.36-13.14,13.56-20.1,21.3-17.88,30.24-28.92,63.12-28.92,95.04,0,35.16,16.56,81.78,62.52,110.1v-.06Z"/>
      <path class="cls-1" d="M287.92,243.06c-3.3-39.18-17.46-75.6-15.24-129.9-2.82-13.32-4.44-28.02-4.44-44.34-10.86,21.78-14.88,45.9-14.88,81,0,37.08,12.72,69.6,34.56,93.24"/>
    </g>
    <path class="cls-7" d="M256.66,332.34c-35.4-26.34-58.38-68.58-58.38-116.1,0-37.74,17.7-81.12,42.78-118.08-52.62,60.54-113.7,151.38-113.7,203.28,0,15.36,2.7,30.06,7.62,43.68,15.3,9.3,33.24,14.64,52.44,14.64,26.76,0,51.12-10.44,69.24-27.42"/>
  </g>
</svg>